<?xml version="1.0" standalone="no"?>
<!DOCTYPE svg PUBLIC "-//W3C//DTD SVG 20010904//EN"
 "http://www.w3.org/TR/2001/REC-SVG-20010904/DTD/svg10.dtd">
<svg version="1.0" xmlns="http://www.w3.org/2000/svg"
 width="150px" height="150px" viewBox="0 0 512.000000 512.000000"
 preserveAspectRatio="xMidYMid meet">

<g transform="translate(0.000000,512.000000) scale(0.100000,-0.100000)"
fill="#fff" stroke="none">
<path d="M3248 5015 c-478 -66 -893 -327 -1165 -735 -58 -86 -130 -227 -163
-316 -20 -58 -24 -62 -58 -68 -24 -4 -68 -30 -127 -75 l-90 -69 -34 14 c-19 8
-37 16 -39 18 -2 3 -10 52 -18 110 -26 203 -59 226 -314 226 -255 0 -289 -25
-316 -228 -8 -58 -15 -107 -17 -108 -2 -2 -19 -10 -38 -18 l-34 -14 -93 71
c-83 63 -98 71 -146 75 -74 6 -111 -16 -237 -145 -117 -118 -139 -152 -139
-212 0 -57 12 -82 84 -174 l63 -82 -14 -35 c-8 -19 -16 -37 -18 -38 -2 -2 -51
-10 -109 -18 -142 -18 -178 -38 -211 -117 -18 -44 -22 -348 -4 -394 13 -36 46
-71 83 -90 24 -13 184 -42 232 -43 6 0 18 -17 26 -39 l15 -38 -69 -91 c-74
-96 -87 -134 -73 -208 5 -30 30 -62 128 -162 67 -69 136 -131 154 -138 39 -17
116 -18 146 -2 12 6 58 39 102 73 l80 62 35 -15 c19 -9 36 -17 37 -17 1 0 7
-41 13 -90 15 -116 26 -153 59 -189 41 -45 79 -56 191 -56 l100 0 0 -177 c0
-199 9 -235 69 -286 38 -32 73 -41 206 -57 l100 -12 18 -41 c9 -23 17 -46 17
-50 0 -5 -33 -52 -74 -105 -81 -105 -100 -154 -87 -214 13 -58 42 -95 163
-214 191 -188 231 -194 406 -62 l104 79 48 -17 48 -17 12 -101 c16 -134 25
-169 57 -207 51 -60 86 -69 293 -69 210 0 246 9 294 73 27 35 36 73 60 257 6
42 10 46 51 63 51 21 43 24 153 -61 77 -60 135 -91 172 -92 60 -1 98 25 234
159 76 75 145 150 152 168 18 41 18 105 0 146 -7 18 -45 72 -83 121 l-70 88
20 48 20 48 101 12 c144 17 172 26 216 70 52 52 63 109 58 314 -3 149 -5 164
-27 204 -14 23 -36 49 -49 58 -24 16 -24 16 49 41 331 110 641 350 842 651
377 563 364 1322 -30 1874 -32 45 -103 129 -158 187 -363 380 -892 566 -1407
496z m506 -165 c604 -120 1066 -584 1188 -1192 32 -157 31 -425 0 -574 -129
-604 -584 -1064 -1172 -1184 -124 -25 -134 -25 -147 3 -9 20 -4 31 41 86 l51
64 105 29 c201 55 450 198 582 335 63 65 69 93 29 134 -42 41 -67 34 -145 -38
-84 -78 -164 -136 -260 -187 -72 -39 -212 -96 -236 -96 -5 0 -12 15 -16 32 -8
40 -257 298 -312 324 -24 11 -52 15 -93 12 -55 -4 -64 -9 -159 -82 -101 -78
-102 -78 -138 -67 -61 18 -63 21 -79 147 -21 168 -50 214 -148 244 -44 13
-387 10 -417 -4 -13 -6 -22 2 -41 41 -125 248 -142 613 -42 893 101 281 310
522 568 656 180 93 348 134 552 134 201 0 360 -37 535 -125 332 -168 572 -489
635 -853 22 -125 19 -322 -6 -445 -21 -106 -74 -254 -115 -324 -13 -23 -24
-55 -24 -72 0 -56 59 -88 111 -61 49 27 153 293 184 468 20 120 20 334 0 454
-71 414 -346 782 -728 974 -288 145 -665 175 -986 78 -421 -128 -764 -475
-890 -901 -52 -175 -66 -419 -35 -604 20 -117 70 -272 123 -378 46 -90 46 -89
30 -213 -8 -63 -16 -88 -26 -88 -18 0 -104 133 -158 245 -121 248 -175 548
-146 805 41 364 183 662 436 916 247 248 565 399 920 438 86 9 332 -4 429 -24z
m-2359 -902 c2 -13 11 -74 19 -137 11 -84 19 -118 33 -131 25 -24 183 -90 213
-90 15 1 56 25 100 60 41 33 77 55 78 49 2 -5 -1 -38 -7 -73 -54 -309 1 -673
148 -975 17 -36 29 -66 27 -69 -2 -2 -13 1 -24 7 -26 14 -102 14 -139 1 -33
-13 -288 -262 -310 -304 -16 -31 -21 -106 -9 -143 6 -18 1 -23 -27 -32 -59
-20 -68 -38 -86 -183 l-16 -133 -155 0 -155 0 -17 134 c-17 128 -32 171 -60
171 -5 0 -47 16 -94 36 -54 23 -92 34 -106 30 -13 -3 -66 -40 -118 -81 -52
-41 -102 -75 -110 -75 -18 0 -210 190 -210 208 0 7 36 59 80 115 44 56 80 110
80 121 0 27 -69 198 -89 218 -11 12 -52 22 -141 33 -69 8 -131 18 -137 20 -10
3 -13 43 -13 154 0 175 -20 153 158 175 125 16 144 25 163 85 6 20 22 57 35
83 13 26 24 58 24 72 0 15 -30 64 -80 130 -44 58 -80 111 -80 118 0 17 191
208 208 208 7 0 59 -36 115 -80 114 -89 130 -94 205 -56 26 13 63 29 83 35 60
19 68 36 85 172 8 68 17 130 19 137 3 9 43 12 154 12 148 0 151 0 156 -22z
m1425 -1263 c7 -8 20 -78 30 -156 14 -108 23 -146 37 -159 22 -21 205 -100
232 -100 10 0 71 41 134 90 64 50 124 90 134 90 22 0 243 -219 243 -241 0 -9
-40 -69 -90 -134 -56 -73 -90 -127 -90 -142 0 -13 11 -45 24 -71 13 -26 29
-66 36 -89 22 -73 40 -83 201 -103 113 -15 146 -22 157 -37 18 -25 13 -330 -6
-342 -7 -4 -77 -16 -155 -25 -102 -13 -147 -22 -159 -34 -26 -27 -101 -220
-94 -245 3 -12 44 -71 91 -131 47 -60 85 -117 85 -126 0 -9 -54 -69 -119 -134
-101 -100 -122 -116 -138 -108 -10 6 -66 47 -123 92 -57 44 -114 83 -125 86
-11 3 -53 -10 -95 -30 -42 -19 -87 -37 -102 -41 -50 -13 -59 -35 -79 -190 -10
-80 -21 -150 -24 -155 -4 -6 -79 -10 -176 -10 -201 0 -180 -17 -204 175 -15
124 -32 175 -57 175 -6 0 -53 18 -105 40 -60 26 -102 38 -115 34 -11 -3 -72
-46 -135 -95 -63 -49 -118 -89 -122 -89 -4 0 -62 56 -130 124 -84 86 -120 129
-115 138 5 7 48 64 96 126 48 63 88 122 88 131 0 10 -15 52 -34 92 -19 41 -38
87 -41 102 -11 43 -39 54 -180 72 -192 24 -175 5 -175 197 0 90 4 169 8 176 5
7 67 20 157 32 162 22 177 29 196 89 6 20 25 65 41 101 16 37 27 74 24 86 -3
11 -46 74 -96 139 -49 65 -90 120 -90 123 0 14 236 242 251 242 9 0 66 -38
125 -85 60 -47 119 -88 131 -91 14 -4 53 7 105 29 46 19 93 38 106 42 39 11
52 47 71 194 12 96 22 146 32 152 8 5 84 9 170 9 126 0 159 -3 169 -15z
m-1140 -760 c0 -5 -7 -28 -16 -51 -13 -33 -22 -43 -46 -48 -65 -13 -70 -10
-64 34 3 22 9 58 12 79 4 32 11 42 32 49 23 8 31 5 54 -22 15 -17 27 -35 28
-41z"/>
<path d="M3410 4220 c-19 -19 -20 -33 -20 -309 l0 -289 -29 -10 c-16 -6 -48
-27 -71 -48 -83 -76 -108 -172 -71 -282 l21 -63 -105 -117 c-58 -64 -108 -127
-111 -140 -14 -51 37 -101 89 -88 15 3 71 57 137 131 97 108 115 125 134 118
11 -4 50 -8 86 -7 80 0 131 25 187 88 113 128 71 330 -84 404 l-33 16 0 282
c0 269 -1 282 -21 308 -26 33 -79 36 -109 6z m109 -754 c56 -30 69 -116 24
-166 -58 -65 -159 -43 -184 39 -29 97 68 174 160 127z"/>
<path d="M1185 3370 c-10 -11 -18 -34 -18 -51 0 -47 30 -69 106 -79 131 -16
242 -94 295 -208 24 -50 27 -70 27 -157 0 -95 -2 -103 -34 -163 -77 -141 -225
-217 -377 -192 -114 19 -218 94 -269 197 -28 53 -30 66 -30 163 0 95 3 110 27
157 16 29 48 75 73 103 52 58 57 89 20 125 -34 35 -68 32 -117 -12 -101 -91
-158 -226 -158 -372 0 -151 50 -269 156 -371 326 -313 865 -83 864 370 0 144
-48 259 -150 361 -98 98 -213 148 -341 149 -44 0 -60 -4 -74 -20z"/>
<path d="M2585 2029 c-322 -32 -557 -353 -491 -669 29 -141 130 -300 188 -300
14 0 37 9 52 21 36 28 35 74 -3 119 -43 54 -79 131 -92 202 -40 219 126 446
347 476 207 27 383 -80 454 -275 19 -53 22 -77 18 -155 -3 -79 -9 -103 -36
-159 -75 -156 -244 -251 -418 -234 -83 8 -107 -1 -122 -42 -12 -36 0 -67 34
-90 42 -27 206 -25 299 4 178 56 325 208 379 392 20 70 21 218 1 296 -24 91
-73 174 -150 251 -126 127 -279 182 -460 163z"/>
</g>
</svg>
