<?xml version="1.0" standalone="no"?>
<!DOCTYPE svg PUBLIC "-//W3C//DTD SVG 20010904//EN"
 "http://www.w3.org/TR/2001/REC-SVG-20010904/DTD/svg10.dtd">
<svg version="1.0" xmlns="http://www.w3.org/2000/svg"
 width="512.000000pt" height="512.000000pt" viewBox="0 0 512.000000 512.000000"
 preserveAspectRatio="xMidYMid meet">

<g transform="translate(0.000000,512.000000) scale(0.100000,-0.100000)"
fill="white" stroke="none">
<path d="M2327 4382 c-15 -16 -17 -47 -17 -229 0 -166 3 -213 14 -222 9 -8 87
-11 262 -9 l249 3 3 224 c2 156 -1 228 -9 237 -9 11 -60 14 -249 14 -217 0
-238 -2 -253 -18z"/>
<path d="M1071 3806 c-8 -9 -11 -81 -9 -237 l3 -224 249 -3 c175 -2 253 1 262
9 11 9 14 56 14 224 0 193 -2 213 -18 228 -16 15 -49 17 -254 17 -188 0 -238
-3 -247 -14z"/>
<path d="M1707 3807 c-16 -11 -17 -34 -15 -237 l3 -225 249 -3 c175 -2 253 1
262 9 11 9 14 56 14 225 0 180 -2 215 -16 228 -13 14 -50 16 -248 16 -170 0
-237 -3 -249 -13z"/>
<path d="M2327 3802 c-15 -16 -17 -47 -17 -223 0 -148 3 -210 13 -222 11 -16
36 -17 262 -15 l250 3 3 224 c2 156 -1 228 -9 237 -9 11 -60 14 -249 14 -217
0 -238 -2 -253 -18z"/>
<path d="M3959 3632 c-110 -171 -159 -331 -159 -510 0 -116 18 -197 65 -300
40 -86 42 -81 -53 -113 -148 -50 -99 -48 -1947 -49 l-1731 0 -44 -22 c-29 -15
-53 -37 -68 -63 -22 -38 -23 -46 -18 -195 19 -518 187 -978 456 -1250 94 -96
166 -147 285 -207 520 -262 1482 -266 2138 -9 309 121 551 274 780 495 245
237 435 522 597 897 l68 159 99 8 c337 25 585 194 679 460 13 37 13 40 -9 58
-43 36 -158 88 -234 105 -79 17 -240 24 -362 14 l-63 -5 -19 72 c-47 185 -173
355 -348 468 -38 25 -71 45 -73 45 -2 0 -19 -26 -39 -58z"/>
<path d="M446 3224 c-14 -13 -16 -48 -16 -228 0 -169 3 -216 14 -225 9 -8 87
-11 262 -9 l249 3 3 224 c2 156 -1 228 -9 237 -9 11 -60 14 -250 14 -203 0
-240 -2 -253 -16z"/>
<path d="M1071 3226 c-8 -9 -11 -81 -9 -237 l3 -224 249 -3 c175 -2 253 1 262
9 11 9 14 56 14 225 0 180 -2 215 -16 228 -13 14 -50 16 -253 16 -190 0 -241
-3 -250 -14z"/>
<path d="M1702 3228 c-13 -13 -18 -421 -6 -452 5 -14 37 -16 253 -16 179 0
250 3 259 12 9 9 12 74 12 230 0 205 -1 218 -19 228 -29 15 -483 14 -499 -2z"/>
<path d="M2326 3224 c-14 -13 -16 -48 -16 -223 0 -150 3 -212 13 -224 11 -16
36 -17 262 -15 l250 3 3 224 c2 156 -1 228 -9 237 -9 11 -60 14 -250 14 -203
0 -240 -2 -253 -16z"/>
<path d="M2956 3224 c-14 -13 -16 -48 -16 -223 0 -150 3 -212 13 -224 11 -16
36 -17 262 -15 l250 3 3 224 c2 156 -1 228 -9 237 -9 11 -60 14 -250 14 -203
0 -240 -2 -253 -16z"/>
</g>
</svg>
