<?xml version="1.0" standalone="no"?>
<!DOCTYPE svg PUBLIC "-//W3C//DTD SVG 20010904//EN"
 "http://www.w3.org/TR/2001/REC-SVG-20010904/DTD/svg10.dtd">
<svg version="1.0" xmlns="http://www.w3.org/2000/svg"
 width="512.000000pt" height="512.000000pt" viewBox="0 0 512.000000 512.000000"
 preserveAspectRatio="xMidYMid meet">

<g transform="translate(0.000000,512.000000) scale(0.100000,-0.100000)"
fill="#fff" stroke="none">
<path d="M2494 4496 l-34 -34 0 -171 c0 -216 14 -251 100 -251 86 0 100 35
100 251 l0 171 -34 34 c-24 25 -43 34 -66 34 -23 0 -41 -9 -66 -34z"/>
<path d="M1808 4401 c-26 -23 -33 -37 -33 -67 1 -34 14 -57 94 -164 116 -155
147 -187 182 -195 60 -13 127 56 112 116 -8 31 -218 310 -246 326 -37 21 -74
15 -109 -16z"/>
<path d="M3198 4415 c-20 -12 -36 -39 -68 -121 -78 -203 -82 -220 -66 -258 28
-66 108 -82 155 -32 20 21 131 300 131 328 0 5 -7 25 -15 43 -25 52 -83 69
-137 40z"/>
<path d="M1308 4200 c-27 -27 -30 -36 -25 -72 5 -37 19 -55 126 -162 120 -119
122 -121 167 -121 60 0 94 35 94 98 0 39 -5 46 -123 164 -119 119 -124 123
-166 123 -34 0 -49 -6 -73 -30z"/>
<path d="M3678 4113 c-124 -122 -143 -154 -125 -206 19 -58 80 -82 135 -53 43
23 240 228 247 259 9 33 -10 82 -39 102 -11 8 -38 15 -60 15 -37 0 -47 -8
-158 -117z"/>
<path d="M2335 3830 c-654 -67 -1380 -429 -1999 -995 -212 -195 -247 -240
-231 -302 8 -33 122 -151 276 -287 777 -687 1621 -1026 2384 -956 553 51 1137
301 1695 726 251 191 541 461 555 517 4 15 4 39 0 54 -8 34 -123 153 -285 296
-577 508 -1191 825 -1801 927 -143 24 -449 34 -594 20z m504 -224 c378 -105
662 -391 768 -772 25 -91 28 -114 28 -274 0 -160 -3 -183 -28 -274 -106 -383
-390 -667 -773 -773 -91 -25 -114 -28 -274 -28 -160 0 -183 3 -273 27 -384
107 -668 391 -774 774 -25 91 -28 114 -28 274 0 160 3 183 28 274 116 418 445
718 876 797 25 4 116 6 201 4 129 -3 171 -8 249 -29z m-1257 -223 c-106 -124
-182 -261 -237 -426 -138 -416 -46 -889 238 -1221 63 -73 58 -72 -158 34 -350
172 -719 431 -1000 703 l-90 87 95 92 c307 295 723 580 1089 744 53 24 100 44
104 44 5 0 -14 -26 -41 -57z m2081 -16 c245 -118 498 -277 727 -455 99 -78
298 -251 355 -311 l39 -41 -39 -41 c-57 -60 -256 -233 -355 -311 -229 -178
-482 -337 -727 -455 -83 -40 -157 -73 -163 -73 -6 0 11 26 38 58 106 123 182
260 237 425 138 416 46 889 -237 1220 -27 31 -44 57 -38 57 6 0 80 -33 163
-73z"/>
<path d="M2431 3034 c-30 -8 -77 -27 -105 -42 -65 -34 -163 -133 -198 -198
-77 -143 -77 -325 0 -468 34 -65 133 -164 198 -198 143 -77 325 -77 468 0 65
34 164 133 198 198 77 143 77 325 0 468 -34 65 -133 164 -198 198 -105 56
-249 73 -363 42z m256 -210 c103 -49 165 -148 165 -264 0 -267 -329 -395 -507
-198 -55 60 -77 117 -77 198 0 218 221 357 419 264z"/>
<path d="M1425 1261 c-50 -31 -233 -225 -240 -254 -9 -33 10 -82 39 -102 11
-8 38 -15 60 -15 37 0 47 8 158 117 124 122 143 154 125 206 -12 35 -53 67
-86 67 -14 0 -39 -8 -56 -19z"/>
<path d="M3480 1252 c-24 -24 -30 -39 -30 -73 0 -42 4 -47 123 -166 118 -118
125 -123 164 -123 63 0 98 34 98 94 0 45 -2 47 -121 167 -107 107 -125 121
-162 126 -36 5 -45 2 -72 -25z"/>
<path d="M1924 1134 c-19 -9 -38 -30 -48 -52 -25 -59 -106 -282 -106 -293 0
-26 33 -77 56 -88 34 -15 59 -14 94 4 23 12 36 35 70 121 78 203 82 220 66
258 -14 33 -59 66 -88 66 -7 0 -27 -7 -44 -16z"/>
<path d="M3004 1131 c-35 -21 -55 -67 -47 -103 7 -31 219 -310 246 -325 37
-21 74 -15 109 16 26 23 33 37 32 67 0 34 -14 58 -105 179 -59 77 -115 148
-126 157 -31 28 -74 31 -109 9z"/>
<path d="M2507 1069 c-40 -23 -47 -60 -47 -240 l0 -171 34 -34 c46 -46 86 -46
132 0 l34 34 0 171 c0 182 -8 218 -49 241 -25 13 -81 12 -104 -1z"/>
</g>
</svg>
